<?xml version="1.0" encoding="utf-8"?>
<!-- Generator: Adobe Illustrator 16.0.0, SVG Export Plug-In . SVG Version: 6.00 Build 0)  -->
<!DOCTYPE svg PUBLIC "-//W3C//DTD SVG 1.1//EN" "http://www.w3.org/Graphics/SVG/1.1/DTD/svg11.dtd">
<svg version="1.1" id="Layer_1" xmlns="http://www.w3.org/2000/svg" xmlns:xlink="http://www.w3.org/1999/xlink" x="0px" y="0px"
	 width="314px" height="218px" viewBox="0 0 314 218" enable-background="new 0 0 314 218" xml:space="preserve">
<title>8D60F003-8217-4FFC-988B-89B5EE661CE4</title>
<desc>Created with sketchtool.</desc>
<g id="Inner-Page">
	<g id="Home-01" transform="translate(-791.000000, -572.000000)">
		<g id="Shape-_x26_-abstract-" transform="translate(791.000000, 499.000000)">
			<g id="Group-405" transform="translate(0.000000, 73.000000)">
				<g id="Clip-404">
				</g>
				<defs>
					<filter id="Adobe_OpacityMaskFilter" filterUnits="userSpaceOnUse" x="0" y="0.422" width="313.84" height="216.783">
						<feColorMatrix  type="matrix" values="1 0 0 0 0  0 1 0 0 0  0 0 1 0 0  0 0 0 1 0"/>
					</filter>
				</defs>
				<mask maskUnits="userSpaceOnUse" x="0" y="0.422" width="313.84" height="216.783" id="mask-2">
					<g filter="url(#Adobe_OpacityMaskFilter)">
						<polygon id="path-1" fill="#FFFFFF" points="0,0.421 313.839,0.421 313.839,217.205 0,217.205 						"/>
					</g>
				</mask>
				<path id="Fill-403" mask="url(#mask-2)" fill="#F29221" d="M11.428,64.569c-24.673,41.842-6.622,100.224,27.702,133.987
					c17.732,17.34,41.611,20.011,65.329,18.136c15.374-0.974,26.819-5.72,38.739-15.761c8.679-7.6,16.106-13.669,27.708-17.029
					c16.385-4.59,32.838-2.164,48.049,4.939c11.115,5.107,21.924,10.588,34.905,10.231c46.435-0.149,81.049-69.759,45.032-102.988
					c-19.203-17.875-44.909-30.86-70.945-30.849c-20.783-0.178-31.598-5.669-45.16-20.312
					c-13.641-15.333-24.589-31.667-44.813-39.622C119.91-2.196,56.252-11.414,11.428,64.569"/>
			</g>
		</g>
	</g>
</g>
</svg>
